<?xml version="1.0" encoding="UTF-8"?>
<svg width="32" height="32" viewBox="0 0 32 32" fill="none" xmlns="http://www.w3.org/2000/svg">
  <!-- Background Circle with gradient -->
  <circle cx="16" cy="16" r="16" fill="url(#gradient)" />
  
  <!-- Stylized Chain Link / Timestamp symbol -->
  <path d="M20.5 11.5C19.3 10.3 17.4 10.3 16.2 11.5L14.4 13.3C13.2 14.5 13.2 16.4 14.4 17.6C14.6 17.8 14.9 17.9 15.1 17.9C15.4 17.9 15.6 17.8 15.8 17.6L17.6 15.8C17.9 15.5 18.5 15.5 18.8 15.8C19.1 16.1 19.1 16.7 18.8 17L17 18.8C15.8 20 13.9 20 12.7 18.8C11.5 17.6 11.5 15.7 12.7 14.5L14.5 12.7C15.7 11.5 17.6 11.5 18.8 12.7C19 12.9 19.3 13 19.5 13C19.8 13 20 12.9 20.2 12.7C20.7 12.2 20.7 11.7 20.5 11.5Z" fill="white"/>
  
  <!-- Twitch-inspired elements -->
  <path d="M19.3 14.2L17.8 15.7C17.5 16 17.5 16.6 17.8 16.9C18.1 17.2 18.7 17.2 19 16.9L20.5 15.4C21.7 14.2 21.7 12.3 20.5 11.1C19.3 9.9 17.4 9.9 16.2 11.1L14.7 12.6C13.5 13.8 13.5 15.7 14.7 16.9C14.9 17.1 15.2 17.2 15.4 17.2C15.7 17.2 15.9 17.1 16.1 16.9L17.6 15.4C17.9 15.1 17.9 14.5 17.6 14.2C17.3 13.9 16.7 13.9 16.4 14.2L14.9 15.7C14.3 16.3 13.3 16.3 12.7 15.7C12.1 15.1 12.1 14.1 12.7 13.5L14.2 12C14.8 11.4 15.8 11.4 16.4 12C16.7 12.3 17.3 12.3 17.6 12C17.9 11.7 17.9 11.1 17.6 10.8C16.4 9.6 14.5 9.6 13.3 10.8L11.8 12.3C10.6 13.5 10.6 15.4 11.8 16.6C13 17.8 14.9 17.8 16.1 16.6L17.6 15.1C18.2 14.5 19.2 14.5 19.8 15.1C20.4 15.7 20.4 16.7 19.8 17.3L18.3 18.8C17.7 19.4 16.7 19.4 16.1 18.8C15.8 18.5 15.2 18.5 14.9 18.8C14.6 19.1 14.6 19.7 14.9 20C16.1 21.2 18 21.2 19.2 20L20.7 18.5C21.9 17.3 21.9 15.4 20.7 14.2C19.5 13 17.6 13 16.4 14.2L14.9 15.7" stroke="white" strokeWidth="1.5"/>
  
  <!-- Gradient definition -->
  <defs>
    <linearGradient id="gradient" x1="0" y1="0" x2="32" y2="32" gradientUnits="userSpaceOnUse">
      <stop offset="0%" stopColor="#8B5CF6"/>
      <stop offset="50%" stopColor="#D946EF"/>
      <stop offset="100%" stopColor="#6366F1"/>
    </linearGradient>
  </defs>
</svg> 